<svg width="400" height="400" viewBox="0 0 400 400" fill="none" xmlns="http://www.w3.org/2000/svg">
<rect width="400" height="400" rx="110" fill="#E9E9E9"/>
<path d="M180.4 268.64H157.56C157.07 268.64 156.67 268.24 156.67 267.75V204.65C156.67 204.26 156.14 204.13 155.97 204.48L124.25 267.05C124.06 267.42 123.54 267.43 123.34 267.06L90.48 206.36C90.32 206.06 89.87 206.18 89.87 206.51V267.76C89.87 268.24 89.48 268.63 89 268.63H52.17C51.7 268.63 51.31 268.24 51.33 267.77C51.6 256.74 52.12 143.67 52.18 132.07C52.18 131.54 52.61 131.11 53.15 131.11H90.34C90.92 131.11 91.46 131.45 91.7 131.98L123.93 201.15C124.09 201.49 124.58 201.49 124.74 201.15L157.26 132.1C157.55 131.49 158.16 131.1 158.83 131.1H212.35C212.68 131.1 212.87 131.46 212.7 131.73L169.87 201.47C169.87 201.47 165.4 206.47 169.87 209.33L190.05 220.4C190.05 220.4 195.05 222.72 193.26 227.37L181.55 267.74C181.4 268.26 180.92 268.62 180.37 268.62L180.4 268.64Z" fill="#F9C132"/>
<path d="M255.13 131.69L310.55 202.2C310.69 202.38 310.98 202.28 310.98 202.05V132.55C310.98 132.06 311.38 131.66 311.87 131.66H347.67C348.22 131.66 348.66 132.1 348.66 132.65V268.48C348.66 268.87 348.34 269.19 347.95 269.19H310.94C310.4 269.19 309.88 268.94 309.55 268.51L255.61 198.8C255.43 198.57 255.07 198.7 255.07 198.98V267.72C255.07 268.24 254.65 268.65 254.14 268.65H196.47C196.05 268.65 195.79 268.19 196.01 267.83L234.35 205.6C234.35 205.6 234.38 205.56 234.44 205.47C235.52 203.84 234.94 201.63 233.22 200.7L209.71 188.09C209.71 188.09 207.39 187.02 209 182.73L223.88 131.95C224.06 131.35 224.61 130.93 225.24 130.92C229.94 130.88 248.87 130.73 253.51 130.86C254.14 130.88 254.74 131.18 255.13 131.68V131.69Z" fill="#F7931A"/>
</svg>
